<?xml version="1.0" standalone="no"?>
<!DOCTYPE svg PUBLIC "-//W3C//DTD SVG 20010904//EN"
 "http://www.w3.org/TR/2001/REC-SVG-20010904/DTD/svg10.dtd">
<svg version="1.0" xmlns="http://www.w3.org/2000/svg"
 width="640.000000pt" height="628.000000pt" viewBox="0 0 640.000000 628.000000"
 preserveAspectRatio="xMidYMid meet">
<metadata>
Created by potrace 1.16, written by Peter Selinger 2001-2019
</metadata>
<g transform="translate(0.000000,628.000000) scale(0.100000,-0.100000)"
fill="#000000" stroke="none">
<path d="M0 3140 l0 -3140 535 0 c350 0 535 3 535 10 0 6 -12 10 -28 10 -15 0
-37 7 -49 15 -12 8 -29 12 -37 9 -9 -3 -22 -1 -30 5 -7 6 -38 18 -67 27 -30 9
-58 22 -62 30 -4 8 -23 14 -42 14 -19 0 -35 4 -35 8 0 4 -24 16 -52 26 -29 11
-60 25 -69 32 -8 8 -26 14 -40 14 -13 0 -33 7 -43 15 -11 8 -29 15 -41 15 -12
0 -25 4 -31 9 -21 20 -102 58 -149 71 -27 7 -64 24 -82 36 -17 13 -34 24 -38
24 -3 0 -39 16 -80 35 -75 35 -75 35 -75 74 0 22 4 41 8 43 11 4 52 77 52 92
0 6 16 27 35 46 19 19 35 42 35 51 0 9 16 30 35 46 19 17 35 36 35 44 0 13 75
99 86 99 10 0 34 29 34 42 1 17 35 58 49 58 6 0 11 6 11 14 0 8 18 30 40 49
22 19 40 36 40 39 0 3 50 54 111 114 61 60 127 126 147 146 19 21 41 38 49 38
7 0 13 6 13 13 0 16 52 67 68 67 7 0 12 7 12 15 0 21 88 21 96 0 4 -10 21 -15
54 -15 27 0 52 -5 55 -10 3 -5 16 -10 28 -10 13 0 33 -7 45 -16 12 -8 29 -14
38 -12 18 3 44 69 44 113 0 17 7 43 15 59 8 15 15 46 15 67 0 22 5 39 10 39 6
0 10 18 10 41 0 22 5 50 12 62 6 12 15 40 19 62 14 77 32 130 47 142 12 10
176 13 742 13 l725 0 27 -25 c15 -14 30 -25 34 -25 4 0 21 -10 38 -23 17 -13
38 -27 46 -30 8 -4 29 -16 45 -26 17 -11 40 -20 51 -20 12 -1 24 -8 28 -16 3
-8 14 -15 25 -15 11 0 23 -4 26 -10 3 -5 17 -10 30 -10 13 0 30 -7 39 -15 8
-8 28 -15 45 -15 16 0 33 -5 36 -10 3 -6 21 -10 39 -10 18 0 41 -7 52 -15 14
-11 51 -14 152 -15 114 0 132 2 132 16 0 13 9 15 45 12 29 -2 46 1 50 9 2 8
21 13 44 13 22 0 43 5 46 10 3 6 17 10 31 10 13 0 24 4 24 9 0 5 13 11 30 15
18 3 30 12 30 21 0 11 12 15 50 15 38 0 50 -4 50 -15 0 -11 11 -15 40 -15 22
0 40 -4 40 -10 0 -5 18 -10 39 -10 44 0 51 -10 51 -71 0 -58 18 -47 22 12 2
40 8 55 23 63 11 6 32 19 47 29 14 9 33 17 42 17 9 0 16 4 16 9 0 4 27 18 60
30 33 12 60 26 60 32 0 5 9 9 20 9 11 0 20 5 20 10 0 6 18 10 40 10 28 0 40 4
40 14 0 32 131 29 160 -3 11 -13 48 -29 80 -36 40 -9 126 -50 135 -65 3 -5 17
-10 30 -10 13 0 27 -5 30 -10 3 -6 26 -19 51 -30 24 -11 44 -25 44 -30 0 -6 9
-10 20 -10 20 0 130 -52 160 -75 8 -6 31 -18 50 -25 19 -8 37 -17 40 -20 3 -3
21 -12 40 -20 19 -8 37 -16 40 -19 7 -8 115 -61 124 -61 14 0 116 -53 116 -60
0 -4 18 -10 40 -14 22 -3 40 -11 40 -16 0 -6 10 -10 23 -10 20 0 48 -18 98
-63 9 -8 38 -21 64 -30 26 -9 58 -28 71 -42 13 -14 29 -25 36 -25 32 0 154
-98 180 -144 8 -15 3 -25 -29 -57 -21 -21 -45 -38 -54 -39 -9 0 -22 -7 -29
-15 -7 -8 -19 -15 -26 -15 -8 0 -14 -4 -14 -9 0 -5 -18 -12 -40 -16 -22 -4
-40 -10 -40 -13 0 -4 -28 -20 -61 -37 -34 -16 -64 -36 -66 -42 -3 -7 -16 -13
-28 -13 -13 0 -25 -3 -27 -7 -5 -13 -147 -88 -200 -106 -10 -4 -18 -11 -18
-17 0 -5 -6 -10 -13 -10 -18 0 -217 -98 -242 -120 -29 -24 -94 -60 -109 -60
-8 0 -19 -6 -25 -13 -6 -8 -29 -20 -51 -27 -22 -7 -40 -19 -40 -27 0 -7 -10
-13 -22 -13 -19 0 -165 -66 -178 -81 -3 -3 -31 -20 -62 -38 -32 -18 -58 -36
-58 -40 0 -5 -18 -11 -39 -15 -22 -3 -41 -9 -43 -13 -1 -5 -21 -18 -43 -29
-113 -61 -155 -86 -155 -95 0 -5 -7 -9 -16 -9 -19 0 -142 -59 -150 -72 -3 -4
-15 -8 -28 -8 -16 0 -26 -9 -36 -37 -8 -21 -13 -44 -12 -50 2 -7 -4 -13 -13
-13 -8 0 -15 -4 -15 -10 0 -7 352 -10 1035 -10 l1035 0 0 3140 0 3140 -3200 0
-3200 0 0 -3140z m3643 2925 c37 -10 105 -15 188 -15 84 0 128 -4 124 -10 -4
-7 58 -10 177 -11 200 0 261 -5 266 -19 2 -6 21 -10 43 -10 21 0 39 -4 39 -9
0 -5 18 -11 40 -15 22 -3 40 -10 40 -15 0 -23 61 -31 248 -31 155 0 203 -3
226 -15 15 -8 41 -15 57 -15 16 0 29 -4 29 -10 0 -5 11 -10 24 -10 13 0 26 -4
28 -8 2 -5 30 -22 63 -38 66 -33 76 -38 151 -77 29 -15 59 -27 68 -27 9 0 16
-4 16 -10 0 -5 11 -12 25 -16 14 -3 25 -9 25 -13 0 -4 23 -15 50 -25 28 -10
50 -21 50 -25 0 -3 23 -14 50 -24 28 -10 50 -22 50 -27 0 -6 11 -10 25 -10 14
0 25 -4 25 -10 0 -5 7 -10 15 -10 8 0 15 -4 15 -9 0 -5 11 -22 24 -38 13 -16
32 -53 42 -83 9 -30 21 -59 25 -65 5 -5 9 -23 9 -41 0 -17 7 -45 15 -60 22
-43 22 -504 0 -504 -13 0 -15 -24 -15 -160 0 -100 -4 -160 -10 -160 -6 0 -10
-60 -10 -159 0 -132 -3 -160 -15 -165 -12 -4 -15 -32 -15 -161 0 -97 -4 -155
-10 -155 -6 0 -10 -60 -10 -159 0 -112 -3 -160 -12 -163 -7 -3 -13 -37 -15
-89 -2 -46 -8 -93 -13 -104 -5 -11 -10 -78 -12 -149 -3 -89 -8 -131 -16 -134
-8 -2 -12 -30 -12 -80 0 -42 -5 -95 -11 -117 -6 -22 -10 -61 -9 -87 0 -26 -6
-61 -15 -77 -8 -17 -15 -55 -15 -85 0 -30 -4 -58 -10 -61 -5 -3 -10 -36 -10
-73 -1 -43 -6 -74 -15 -86 -9 -12 -15 -43 -15 -80 0 -42 -6 -68 -18 -84 l-17
-22 -545 2 -545 3 -3 23 c-2 15 2 22 13 22 15 0 17 12 14 99 -2 55 -1 103 4
107 4 4 7 0 7 -9 0 -16 25 -17 306 -15 l307 3 2 45 c2 24 8 46 14 48 7 2 11
32 11 77 0 41 4 76 9 79 4 3 11 31 14 62 3 32 10 60 16 63 9 6 12 31 28 251 5
58 13 112 18 120 13 19 24 194 31 463 4 171 8 207 19 207 13 0 15 71 17 481
l3 482 -33 36 c-18 20 -40 35 -48 33 -9 -2 -23 3 -31 10 -13 11 -175 12 -862
10 -465 -2 -854 -6 -863 -8 -15 -5 -18 -18 -18 -85 l0 -79 313 0 312 0 -5
-252 c-5 -253 -5 -253 18 -276 31 -32 19 -45 -34 -39 -24 2 -44 0 -44 -4 0
-15 -52 -32 -60 -20 -3 6 -13 3 -23 -9 -9 -11 -25 -20 -34 -20 -19 0 -263
-244 -263 -262 0 -5 -7 -7 -16 -4 -9 3 -45 6 -80 6 l-64 0 -2 33 -1 32 -4 -32
-4 -33 -185 0 c-116 0 -184 -4 -184 -10 0 -5 -13 -10 -28 -10 -15 0 -34 -6
-40 -12 -7 -7 -26 -13 -42 -14 -31 -2 -148 -89 -149 -111 -1 -7 -5 -13 -10
-13 -10 0 -214 -205 -219 -220 -2 -6 -9 -10 -15 -10 -7 -1 -25 -19 -42 -40
-16 -21 -35 -39 -41 -40 -14 0 -24 -23 -24 -55 0 -12 -7 -28 -15 -35 -8 -7
-15 -28 -15 -46 0 -19 -4 -34 -10 -34 -5 0 -10 -20 -10 -44 0 -30 -5 -46 -15
-50 -10 -3 -15 -19 -15 -43 -1 -21 -7 -49 -15 -63 -17 -30 -19 -157 -4 -215 6
-22 13 -55 16 -73 3 -19 12 -36 19 -39 8 -3 14 -18 14 -34 0 -15 12 -49 26
-74 14 -26 23 -53 20 -61 -3 -7 3 -19 12 -26 9 -7 17 -24 17 -38 -1 -14 2 -27
5 -30 9 -9 30 -49 30 -59 0 -5 17 -28 38 -51 20 -23 37 -47 37 -54 0 -6 4 -17
8 -23 6 -10 -13 -13 -87 -13 -103 0 -126 5 -126 26 0 8 -7 14 -15 14 -12 0
-15 16 -15 80 l0 80 43 1 c36 2 32 3 -23 10 -36 5 -321 6 -635 4 -314 -3 -576
-5 -583 -5 -10 0 -9 -6 2 -28 8 -16 16 -59 17 -95 2 -49 6 -68 18 -72 44 -17
-34 -25 -250 -25 l-237 0 -16 25 c-10 15 -16 46 -16 83 0 36 -6 66 -15 78 -9
12 -14 42 -15 81 0 34 -4 65 -10 68 -6 3 -10 33 -10 66 0 33 -5 70 -12 82 -14
25 -26 117 -34 262 -4 56 -11 103 -17 107 -7 4 -12 56 -15 135 -2 70 -7 137
-12 148 -5 11 -11 58 -13 104 -2 53 -8 86 -16 89 -8 3 -11 48 -10 160 0 105
-3 158 -10 160 -7 2 -11 57 -11 163 0 135 -2 159 -15 159 -13 0 -15 24 -15
160 0 100 -4 160 -10 160 -6 0 -10 60 -10 160 0 137 -2 160 -15 160 -14 0 -15
30 -13 241 2 174 6 249 15 266 7 14 13 40 13 59 0 18 5 36 10 39 6 3 10 16 10
28 1 43 74 167 99 167 6 0 11 5 11 10 0 6 7 10 14 10 8 0 36 11 62 25 26 14
53 25 60 25 8 0 14 4 14 10 0 5 18 14 40 20 21 6 45 17 53 24 7 7 23 17 35 20
12 4 22 12 22 17 0 5 8 9 18 9 9 0 35 11 57 25 22 13 48 25 58 25 9 0 17 5 17
10 0 6 9 10 20 10 11 0 20 4 20 8 0 5 25 19 55 31 30 13 55 27 55 32 0 5 11 9
25 9 14 0 25 5 25 10 0 6 18 10 39 10 23 0 41 5 43 13 4 9 57 13 214 14 207 3
257 10 268 39 3 8 20 14 41 14 19 0 35 5 35 10 0 6 18 10 39 10 23 0 41 5 43
13 4 9 59 13 223 14 120 2 221 7 224 12 3 4 82 11 176 13 113 4 170 9 173 17
6 19 772 15 845 -4z m1077 -1785 c0 -260 -3 -400 -10 -400 -5 0 -10 -7 -10
-15 0 -19 -9 -19 -48 1 -18 8 -32 22 -32 29 0 8 -12 21 -27 30 -16 9 -35 31
-44 48 -11 23 -24 33 -45 35 -38 5 -51 18 -25 27 25 8 81 -14 81 -32 0 -25 32
-10 43 20 9 24 37 22 37 -3 0 -11 -8 -28 -18 -38 -17 -17 -17 -19 0 -37 10
-10 18 -29 18 -42 0 -17 6 -23 24 -23 l23 0 5 313 c2 171 2 351 -1 400 -5 78
-4 87 12 87 16 0 17 -26 17 -400z m-400 -170 c0 -5 -2 -10 -4 -10 -3 0 -8 5
-11 10 -3 6 -1 10 4 10 6 0 11 -4 11 -10z m80 -15 c0 -23 -2 -24 -20 -15 -23
12 -26 26 -7 33 23 10 27 7 27 -18z m320 -297 c0 -32 -3 -39 -10 -28 -13 20
-13 70 0 70 6 0 10 -19 10 -42z m-1495 -308 c3 -5 23 -10 43 -10 20 0 46 -7
56 -15 11 -8 29 -15 41 -15 12 0 30 -7 41 -15 10 -8 29 -15 41 -15 12 0 25 -4
28 -10 3 -5 22 -10 41 -10 19 0 34 -4 34 -10 0 -5 11 -12 25 -16 14 -3 25 -9
25 -13 0 -4 23 -15 50 -25 28 -10 50 -22 50 -26 0 -5 9 -12 20 -15 24 -8 280
-258 280 -274 0 -19 55 -101 67 -101 7 0 13 -6 13 -13 0 -18 24 -67 33 -67 4
0 7 -18 7 -40 0 -22 4 -40 9 -40 5 0 12 -18 16 -40 4 -22 11 -40 16 -40 5 0 9
-13 9 -29 0 -16 6 -36 14 -44 11 -10 12 -31 6 -93 -4 -50 -8 -64 -9 -39 -4 82
-48 222 -73 233 -5 2 -8 16 -8 30 0 15 -16 53 -35 85 -19 32 -35 60 -35 63 0
21 -82 132 -133 182 -34 33 -89 89 -122 125 -33 37 -67 67 -76 67 -9 0 -24 9
-34 20 -10 11 -29 20 -42 20 -12 0 -23 4 -23 9 0 5 -18 16 -40 25 -22 9 -40
20 -40 25 0 5 -10 11 -22 14 -29 6 -87 27 -110 38 -10 5 -38 9 -63 9 -31 0
-45 4 -45 14 0 19 -132 29 -254 20 -85 -6 -96 -5 -96 10 0 13 11 16 55 16 30
0 55 5 55 10 0 6 36 10 89 10 50 0 93 -4 96 -10z m-305 -50 c0 -5 -7 -10 -15
-10 -9 0 -18 -7 -21 -15 -4 -8 -18 -15 -34 -15 -15 0 -30 -6 -33 -14 -4 -9
-14 -12 -28 -9 -14 4 -26 0 -33 -10 -14 -18 -44 -26 -47 -12 -2 12 49 43 73
44 9 1 18 4 20 9 11 24 118 54 118 32z m360 -125 c0 -8 6 -15 14 -15 7 0 21
-11 29 -24 12 -18 14 -32 6 -66 -12 -52 -6 -70 20 -70 11 0 24 -7 29 -17 6 -9
16 -14 25 -10 10 4 18 -1 22 -14 4 -11 15 -19 27 -19 11 0 32 -12 45 -26 l24
-26 28 26 c15 14 32 26 39 26 7 0 12 5 12 12 0 7 12 25 27 40 36 37 79 37 116
1 137 -135 137 -135 137 -175 0 -31 -4 -38 -19 -38 -18 0 -81 -56 -81 -72 0
-4 -7 -8 -15 -8 -23 0 -18 -17 15 -46 16 -15 27 -30 25 -34 -3 -4 2 -13 10
-20 8 -7 15 -23 15 -36 0 -13 6 -24 13 -24 8 0 19 -22 27 -50 7 -27 17 -50 22
-50 4 0 8 -11 8 -25 0 -14 -3 -25 -8 -25 -4 0 -19 -11 -34 -25 -24 -22 -35
-25 -121 -26 -101 -1 -137 9 -137 41 0 36 -41 93 -133 185 -63 63 -107 98
-139 111 -27 10 -48 22 -48 26 0 3 -39 9 -86 13 -132 11 -150 -7 -145 -140 2
-47 8 -73 17 -78 8 -4 14 -19 14 -31 0 -22 23 -42 44 -37 4 1 6 -12 4 -29 -3
-19 0 -30 7 -30 7 0 32 -22 57 -50 27 -30 54 -50 67 -50 12 0 21 -6 21 -15 0
-9 9 -15 25 -15 14 0 25 -4 25 -10 0 -5 11 -10 24 -10 13 0 26 -7 30 -15 3 -8
18 -15 34 -15 55 0 65 -17 62 -111 -3 -118 -4 -126 -23 -147 -9 -10 -17 -24
-17 -30 0 -7 -16 -12 -40 -12 -27 0 -40 4 -40 13 0 8 -18 20 -40 27 -22 7 -40
17 -40 22 0 4 -5 8 -11 8 -6 0 -39 14 -72 31 -50 25 -65 29 -84 20 -13 -6 -23
-15 -23 -21 0 -5 -7 -10 -15 -10 -8 0 -15 -4 -15 -9 0 -16 -59 -31 -83 -21
-44 19 -97 62 -97 78 0 5 -11 14 -24 22 -19 10 -25 22 -28 57 -3 41 -1 46 25
59 27 14 28 17 24 77 -5 64 -38 136 -64 137 -7 0 -13 8 -13 18 0 23 -33 41
-84 44 -39 3 -64 27 -82 81 -4 9 -10 17 -14 17 -4 0 -12 18 -19 41 -11 38 -11
43 10 65 17 18 33 24 66 24 41 0 43 2 43 29 0 16 7 34 15 41 8 7 15 27 15 45
0 18 7 38 15 45 25 20 17 46 -23 81 -46 40 -56 63 -36 79 8 7 14 20 14 30 0
19 40 50 65 50 8 0 15 4 15 9 0 20 42 19 58 -1 38 -46 57 -58 91 -58 20 0 45
7 55 15 11 8 28 13 38 9 40 -12 55 3 53 54 -3 77 14 91 108 92 62 0 77 -3 77
-15z m1385 -147 c-9 -48 -26 -77 -40 -72 -7 3 -16 1 -20 -5 -11 -20 -25 -12
-25 15 0 16 7 28 18 31 10 2 24 17 31 34 18 41 45 39 36 -3z m-2112 -29 c5 -3
2 -9 -7 -12 -12 -5 -16 0 -16 15 0 12 3 17 8 12 4 -5 11 -12 15 -15z m1993
-94 c-21 -32 -50 -24 -34 10 11 24 40 38 46 23 2 -5 -3 -20 -12 -33z m7 -42
c-18 -6 -17 -83 0 -83 8 0 14 -15 15 -40 2 -23 -2 -40 -8 -40 -12 0 -13 -88
-3 -181 7 -57 8 -60 13 -29 6 29 8 32 15 16 5 -12 3 -31 -5 -50 -7 -17 -13
-58 -12 -91 2 -56 1 -61 -25 -72 -34 -16 -38 -12 -19 24 10 21 14 52 11 104
-1 41 0 130 5 199 7 114 6 127 -11 146 -27 30 -25 86 4 100 12 5 24 8 27 6 3
-3 -1 -7 -7 -9z m77 -95 c0 -22 -17 -41 -29 -34 -19 12 -13 46 9 46 11 0 20
-6 20 -12z m-23 -130 c-2 -13 -4 -3 -4 22 0 25 2 35 4 23 2 -13 2 -33 0 -45z"/>
<path d="M2800 6010 c0 -6 -80 -10 -219 -10 -184 0 -221 -2 -231 -15 -11 -13
-33 -15 -141 -9 -95 5 -129 4 -129 -5 0 -7 -28 -11 -85 -11 -71 0 -83 -2 -79
-15 5 -13 157 -15 1284 -15 1127 0 1279 2 1284 15 4 13 -8 15 -79 15 -57 0
-85 4 -85 11 0 9 -44 10 -162 6 -141 -4 -159 -3 -133 8 25 11 -60 14 -557 14
-385 1 -588 4 -588 11 0 6 -18 10 -40 10 -22 0 -40 -4 -40 -10z"/>
<path d="M2316 4842 c-2 -4 13 -6 35 -4 21 2 39 6 39 8 0 7 -69 4 -74 -4z"/>
<path d="M2900 4840 c-11 -7 -12 -10 -2 -10 10 0 13 -18 10 -75 l-3 -75 287 0
287 0 3 85 3 85 -285 0 c-167 0 -291 -4 -300 -10z"/>
<path d="M2598 1886 c-14 -10 -18 -28 -18 -70 0 -50 -3 -57 -24 -66 -13 -5
-27 -14 -31 -19 -3 -6 -15 -11 -26 -11 -10 0 -19 -4 -19 -10 0 -5 -18 -10 -40
-10 -29 0 -40 -4 -40 -15 0 -27 -36 -16 -78 25 -43 42 -71 50 -92 25 -7 -8
-18 -15 -25 -15 -19 0 -79 -32 -88 -47 -4 -7 -15 -13 -22 -13 -30 0 -16 -50
24 -87 l39 -36 -29 -24 c-16 -14 -29 -31 -29 -39 0 -8 -11 -27 -25 -42 -14
-15 -25 -39 -25 -54 0 -28 -1 -28 -65 -28 -51 0 -65 -3 -65 -15 0 -8 -4 -15
-10 -15 -14 0 -12 -111 3 -144 12 -27 14 -28 70 -22 56 6 59 5 88 -26 16 -18
29 -38 29 -45 0 -6 13 -26 30 -44 32 -35 31 -40 -17 -93 -18 -19 -33 -40 -33
-46 0 -6 24 -35 53 -65 48 -49 58 -55 95 -55 31 0 44 5 52 20 6 11 17 20 25
20 8 0 15 6 15 14 0 16 42 46 65 46 8 0 15 -7 15 -15 0 -11 11 -15 40 -15 22
0 40 -4 40 -10 0 -5 15 -10 33 -10 52 0 67 -26 67 -119 0 -110 2 -111 166
-111 l129 0 13 27 c6 15 12 60 12 100 0 68 2 74 27 90 15 10 36 16 46 15 11
-2 23 1 26 7 4 5 18 12 31 15 14 3 41 10 60 17 122 42 130 47 130 85 0 27 -14
46 -91 123 -73 73 -96 91 -120 91 -16 0 -29 -4 -29 -10 0 -5 -15 -10 -34 -10
-18 0 -39 -7 -46 -15 -7 -8 -25 -15 -41 -15 -15 0 -31 -4 -34 -10 -8 -13 -185
-13 -185 0 0 6 -20 10 -44 10 -30 0 -46 5 -50 15 -3 8 -14 15 -24 15 -11 0
-25 7 -32 15 -7 8 -18 15 -24 15 -6 0 -23 12 -38 25 -25 21 -28 31 -28 83 0
61 17 92 52 92 8 0 25 11 38 25 13 14 32 25 42 25 11 0 28 4 38 10 10 5 35 12
56 14 21 3 40 10 42 16 5 13 132 13 132 0 0 -5 20 -10 44 -10 26 0 48 -6 56
-15 7 -8 25 -15 40 -15 15 0 33 -7 40 -15 21 -25 71 -18 108 15 17 16 32 34
32 40 0 5 4 10 9 10 12 0 71 59 71 71 0 5 4 9 9 9 17 0 18 34 3 61 -18 31 -65
61 -84 54 -8 -3 -21 1 -28 10 -7 8 -25 15 -41 15 -16 0 -29 5 -29 10 0 6 -18
10 -40 10 -27 0 -43 5 -46 15 -4 8 -15 15 -25 15 -17 0 -19 8 -19 61 0 39 -5
65 -14 75 -20 19 -263 20 -288 0z"/>
<path d="M4233 1680 c0 -25 2 -35 4 -22 2 12 2 32 0 45 -2 12 -4 2 -4 -23z"/>
<path d="M1150 1170 c0 -5 5 -10 10 -10 6 0 10 5 10 10 0 6 -4 10 -10 10 -5 0
-10 -4 -10 -10z"/>
<path d="M1130 1076 c0 -9 5 -16 10 -16 6 0 10 4 10 9 0 6 -4 13 -10 16 -5 3
-10 -1 -10 -9z"/>
<path d="M1104 966 c-3 -8 -1 -23 5 -33 9 -15 10 -13 11 15 0 34 -7 42 -16 18z"/>
<path d="M1081 868 c-1 -16 4 -28 9 -28 12 0 12 8 0 35 -8 18 -9 17 -9 -7z"/>
<path d="M1058 774 c-5 -4 -8 -16 -8 -28 0 -14 3 -17 11 -9 6 6 9 19 7 28 -1
9 -6 13 -10 9z"/>
<path d="M1017 633 c-7 -54 -21 -125 -32 -165 -6 -24 -4 -28 13 -28 12 0 27
-9 34 -19 14 -19 30 -20 463 -21 335 0 451 -4 456 -12 5 -7 18 -13 31 -14 13
-1 34 -6 48 -11 50 -21 97 -33 124 -33 14 0 29 -7 32 -15 4 -8 16 -15 28 -16
11 0 35 -9 51 -20 17 -10 35 -20 40 -22 44 -17 86 -27 109 -27 14 0 29 -7 32
-15 4 -9 19 -15 37 -15 17 0 39 -8 49 -17 10 -9 28 -18 41 -19 45 -5 82 -17
98 -31 9 -8 27 -13 40 -12 13 1 39 -4 57 -11 26 -12 32 -20 32 -46 0 -19 -6
-34 -15 -38 -8 -3 -15 -10 -15 -16 0 -6 74 -10 215 -10 137 0 215 4 215 10 0
6 -11 10 -24 10 -13 0 -29 6 -36 14 -6 8 -18 12 -25 10 -7 -3 -24 1 -37 9 -13
7 -43 20 -67 27 -24 8 -45 20 -48 27 -3 8 -21 13 -44 13 -21 0 -39 5 -39 10 0
6 -18 10 -40 10 -22 0 -40 4 -40 9 0 6 -21 13 -46 17 -25 3 -48 13 -51 20 -3
8 -12 14 -21 14 -30 0 -122 24 -122 32 0 5 -15 8 -34 8 -19 0 -37 4 -40 9 -8
12 -99 41 -129 41 -14 0 -38 7 -53 15 -16 8 -37 15 -46 15 -10 0 -18 4 -18 9
0 5 -18 12 -40 16 -22 4 -40 11 -40 16 0 5 -14 9 -30 9 -17 0 -43 8 -57 18
-36 23 -51 24 -571 28 -373 4 -456 7 -468 18 -21 21 -20 166 1 166 11 0 15 11
15 40 0 59 -26 53 -33 -7z"/>
</g>
</svg>
